<svg width="50%" height="100%" viewBox="0 0 1634 375" xmlns="http://www.w3.org/2000/svg"
     xmlns:xlink="http://www.w3.org/1999/xlink" xml:space="preserve"
     style="fill-rule:evenodd;clip-rule:evenodd;stroke-linejoin:round;stroke-miterlimit:1.5;">
    <defs>
        <style>
            @import url("https://fonts.googleapis.com/css2?family=Quicksand");
        </style>
    </defs>
    <g transform="matrix(38.9061,0,0,38.9061,-24216.5,-19875.9)"><text x="624.74px" y="518.412px" style="font-family:'Quicksand-Regular', 'Quicksand';font-size:5.141px;fill:#858585;">p<tspan
        x="627.599px " y="518.412px ">y</tspan></text><g transform="matrix(5.14058,0,0,5.14058,656.34,518.412)"></g><text
        x="630.261px" y="518.412px" style="font-family:'Quicksand-Regular', 'Quicksand';font-size:5.141px;">m<tspan
        x="634.693px 637.54px 640.003px 642.65px 647.081px 649.729px 652.443px 653.929px "
        y="518.412px 518.412px 518.412px 518.412px 518.412px 518.412px 518.412px 518.412px ">ovements</tspan></text></g>
    <path d="M1600.16,68.149c-79.962,0 -64.577,273.992 -144.54,273.992c-87.956,0 -36.426,-270.482 -212.77,-270.482l-1217.22,0"
          style="fill:none;stroke:url(#_Linear1);stroke-width:25.22px;"/>
    <path d="M1600.16,267.846c-23.16,0 -81.953,0.896 -103.049,-21.742c-54.934,-58.948 2.031,-186.994 -177.798,-186.994l-1293.69,-0"
          style="fill:none;stroke:url(#_Linear2);stroke-width:26.6px;"/>
    <defs><linearGradient id="_Linear1" x1="0" y1="0" x2="1" y2="0" gradientUnits="userSpaceOnUse" gradientTransform="matrix(-2776.95,18.3963,-9.53285,-1439,2438.67,-32.9456)"><stop offset="0" style="stop-color:#fff;stop-opacity:0.06"/><stop
            offset="0.16" style="stop-color:#888aff;stop-opacity:0.29"/><stop offset="0.35"
                                                                              style="stop-color:#2429ff;stop-opacity:0.49"/><stop
            offset="1" style="stop-color:#0006ff;stop-opacity:0.56"/></linearGradient>
        <linearGradient id="_Linear2" x1="0" y1="0" x2="1" y2="0" gradientUnits="userSpaceOnUse"
                        gradientTransform="matrix(1965.08,24.0183,-14.4998,1186.31,-458.368,261.758)"><stop offset="0" style="stop-color:#fff;stop-opacity:0.06"/>
            <stop offset="0.15" style="stop-color:#ff84a8;stop-opacity:0.33"/>
            <stop offset="0.33" style="stop-color:#ff2263;stop-opacity:0.55"/>
            <stop offset="1" style="stop-color:#ff004b;stop-opacity:0.62"/></linearGradient></defs></svg>