<?xml version="1.0" encoding="UTF-8" standalone="no"?><!DOCTYPE svg PUBLIC "-//W3C//DTD SVG 1.1//EN"
        "http://www.w3.org/Graphics/SVG/1.1/DTD/svg11.dtd">
<svg width="50%" height="100%" viewBox="0 0 1617 371" version="1.1" xmlns="http://www.w3.org/2000/svg"
     xmlns:xlink="http://www.w3.org/1999/xlink" xml:space="preserve" xmlns:serif="http://www.serif.com/"
     style="fill-rule:evenodd;clip-rule:evenodd;stroke-linejoin:round;stroke-miterlimit:1.5;"><g><path d="M137.466,182.147c9.067,0 17.1,2.233 24.1,6.7c7,4.467 12.567,10.6 16.7,18.4c4.134,7.8 6.2,16.767 6.2,26.9c0,10.133 -2.066,19.133 -6.2,27c-4.133,7.867 -9.733,14.067 -16.8,18.6c-7.066,4.533 -15,6.8 -23.8,6.8c-4.666,-0 -9.1,-0.7 -13.3,-2.1c-4.2,-1.4 -8.033,-3.3 -11.5,-5.7c-3.466,-2.4 -6.533,-5.233 -9.2,-8.5c-2.666,-3.267 -4.8,-6.833 -6.4,-10.7l3.6,-2.6l0,62.2c0,1.6 -0.566,3 -1.7,4.2c-1.133,1.2 -2.566,1.8 -4.3,1.8c-1.733,-0 -3.166,-0.6 -4.3,-1.8c-1.133,-1.2 -1.7,-2.6 -1.7,-4.2l0,-130.4c0,-1.733 0.534,-3.2 1.6,-4.4c1.067,-1.2 2.534,-1.8 4.4,-1.8c1.734,0 3.167,0.6 4.3,1.8c1.134,1.2 1.7,2.667 1.7,4.4l0,21.6l-2.8,-1.6c1.334,-4.133 3.3,-7.833 5.9,-11.1c2.6,-3.267 5.634,-6.067 9.1,-8.4c3.467,-2.333 7.267,-4.1 11.4,-5.3c4.134,-1.2 8.467,-1.8 13,-1.8Zm-1,11.2c-7.2,0 -13.533,1.767 -19,5.3c-5.466,3.533 -9.766,8.333 -12.9,14.4c-3.133,6.067 -4.7,13.1 -4.7,21.1c0,7.867 1.567,14.933 4.7,21.2c3.134,6.267 7.434,11.167 12.9,14.7c5.467,3.533 11.8,5.3 19,5.3c7.067,0 13.3,-1.767 18.7,-5.3c5.4,-3.533 9.7,-8.433 12.9,-14.7c3.2,-6.267 4.8,-13.333 4.8,-21.2c0,-7.867 -1.6,-14.867 -4.8,-21c-3.2,-6.133 -7.5,-10.967 -12.9,-14.5c-5.4,-3.533 -11.633,-5.3 -18.7,-5.3Z" style="fill:#858585;fill-rule:nonzero;"/><path
        d="M276.266,181.147c1.734,0 3.167,0.6 4.3,1.8c1.134,1.2 1.7,2.6 1.7,4.2l0,88.2c0,10.8 -2.133,19.9 -6.4,27.3c-4.266,7.4 -10,13 -17.2,16.8c-7.2,3.8 -15.4,5.7 -24.6,5.7c-5.733,-0 -11.033,-0.633 -15.9,-1.9c-4.866,-1.267 -8.833,-2.9 -11.9,-4.9c-1.6,-0.933 -2.8,-2.067 -3.6,-3.4c-0.8,-1.333 -0.866,-2.733 -0.2,-4.2c0.667,-1.867 1.7,-3.1 3.1,-3.7c1.4,-0.6 2.834,-0.567 4.3,0.1c2.267,1.2 5.534,2.667 9.8,4.4c4.267,1.733 9.134,2.6 14.6,2.6c7.334,-0 13.7,-1.533 19.1,-4.6c5.4,-3.067 9.567,-7.5 12.5,-13.3c2.934,-5.8 4.4,-12.7 4.4,-20.7l0,-14.4l1.4,4.8c-2,4.133 -4.833,7.8 -8.5,11c-3.666,3.2 -7.866,5.7 -12.6,7.5c-4.733,1.8 -9.766,2.7 -15.1,2.7c-8,-0 -14.633,-1.633 -19.9,-4.9c-5.266,-3.267 -9.166,-7.767 -11.7,-13.5c-2.533,-5.733 -3.8,-12.467 -3.8,-20.2l0,-61.4c0,-1.6 0.534,-3 1.6,-4.2c1.067,-1.2 2.534,-1.8 4.4,-1.8c1.734,0 3.167,0.6 4.3,1.8c1.134,1.2 1.7,2.6 1.7,4.2l0,59.6c0,9.333 2.034,16.533 6.1,21.6c4.067,5.067 10.7,7.6 19.9,7.6c5.734,0 11,-1.367 15.8,-4.1c4.8,-2.733 8.734,-6.333 11.8,-10.8c3.067,-4.467 4.6,-9.233 4.6,-14.3l0,-59.6c0,-1.6 0.567,-3 1.7,-4.2c1.134,-1.2 2.567,-1.8 4.3,-1.8Z"
        style="fill:#858585;fill-rule:nonzero;"/><path
        d="M349.666,182.147c8.267,0 15.334,2.167 21.2,6.5c5.867,4.333 9.867,10.767 12,19.3l-2.8,0.8l1.2,-3.6c1.734,-4 4.634,-7.767 8.7,-11.3c4.067,-3.533 8.7,-6.367 13.9,-8.5c5.2,-2.133 10.467,-3.2 15.8,-3.2c8.4,0 15.167,1.8 20.3,5.4c5.134,3.6 8.867,8.433 11.2,14.5c2.334,6.067 3.5,12.9 3.5,20.5l0,56.6c0,1.6 -0.566,3 -1.7,4.2c-1.133,1.2 -2.566,1.8 -4.3,1.8c-1.733,0 -3.166,-0.6 -4.3,-1.8c-1.133,-1.2 -1.7,-2.6 -1.7,-4.2l0,-56c0,-5.467 -0.866,-10.467 -2.6,-15c-1.733,-4.533 -4.466,-8.133 -8.2,-10.8c-3.733,-2.667 -8.733,-4 -15,-4c-5.466,0 -10.7,1.333 -15.7,4c-5,2.667 -9.066,6.267 -12.2,10.8c-3.133,4.533 -4.7,9.533 -4.7,15l0,56c0,1.6 -0.566,3 -1.7,4.2c-1.133,1.2 -2.566,1.8 -4.3,1.8c-1.733,0 -3.166,-0.6 -4.3,-1.8c-1.133,-1.2 -1.7,-2.6 -1.7,-4.2l0,-56.6c0,-5.467 -0.8,-10.4 -2.4,-14.8c-1.6,-4.4 -4.2,-7.9 -7.8,-10.5c-3.6,-2.6 -8.466,-3.9 -14.6,-3.9c-5.466,0 -10.633,1.3 -15.5,3.9c-4.866,2.6 -8.8,6.1 -11.8,10.5c-3,4.4 -4.5,9.333 -4.5,14.8l0,56.6c0,1.6 -0.6,3 -1.8,4.2c-1.2,1.2 -2.6,1.8 -4.2,1.8c-1.866,0 -3.333,-0.6 -4.4,-1.8c-1.066,-1.2 -1.6,-2.6 -1.6,-4.2l0,-89.6c0,-1.6 0.567,-3 1.7,-4.2c1.134,-1.2 2.567,-1.8 4.3,-1.8c1.734,0 3.167,0.6 4.3,1.8c1.134,1.2 1.7,2.6 1.7,4.2l0,18.6l-5.4,7.4c0.4,-4 1.7,-8 3.9,-12c2.2,-4 5.1,-7.6 8.7,-10.8c3.6,-3.2 7.7,-5.767 12.3,-7.7c4.6,-1.933 9.434,-2.9 14.5,-2.9Z"
        style="fill-rule:nonzero;"/><path
        d="M571.266,233.947c0,10.133 -2.2,19.233 -6.6,27.3c-4.4,8.067 -10.4,14.4 -18,19c-7.6,4.6 -16.266,6.9 -26,6.9c-9.466,-0 -18.033,-2.3 -25.7,-6.9c-7.666,-4.6 -13.733,-10.933 -18.2,-19c-4.466,-8.067 -6.7,-17.167 -6.7,-27.3c0,-10.267 2.234,-19.4 6.7,-27.4c4.467,-8 10.534,-14.333 18.2,-19c7.667,-4.667 16.234,-7 25.7,-7c9.734,0 18.4,2.333 26,7c7.6,4.667 13.6,11 18,19c4.4,8 6.6,17.133 6.6,27.4Zm-12,0c0,-8.133 -1.666,-15.367 -5,-21.7c-3.333,-6.333 -7.9,-11.333 -13.7,-15c-5.8,-3.667 -12.433,-5.5 -19.9,-5.5c-7.2,0 -13.733,1.833 -19.6,5.5c-5.866,3.667 -10.5,8.667 -13.9,15c-3.4,6.333 -5.1,13.567 -5.1,21.7c0,8.133 1.7,15.333 5.1,21.6c3.4,6.267 8.034,11.233 13.9,14.9c5.867,3.667 12.4,5.5 19.6,5.5c7.467,0 14.1,-1.833 19.9,-5.5c5.8,-3.667 10.367,-8.633 13.7,-14.9c3.334,-6.267 5,-13.467 5,-21.6Z"
        style="fill-rule:nonzero;"/><path
        d="M584.466,180.747c1.067,0 2.134,0.333 3.2,1c1.067,0.667 1.867,1.667 2.4,3l35,83.2l-2.6,1.6l35.8,-84.8c1.067,-2.667 3,-3.933 5.8,-3.8c1.334,0 2.6,0.433 3.8,1.3c1.2,0.867 1.8,2.1 1.8,3.7c0,0.8 -0.1,1.433 -0.3,1.9c-0.2,0.467 -0.366,0.967 -0.5,1.5l-39.2,92c-1.066,2.4 -2.866,3.667 -5.4,3.8c-1.2,0.133 -2.366,-0.167 -3.5,-0.9c-1.133,-0.733 -1.966,-1.7 -2.5,-2.9l-39.4,-92c-0.133,-0.267 -0.266,-0.667 -0.4,-1.2c-0.133,-0.533 -0.2,-1.067 -0.2,-1.6c0,-1.467 0.534,-2.8 1.6,-4c1.067,-1.2 2.6,-1.8 4.6,-1.8Z"
        style="fill-rule:nonzero;"/><path
        d="M728.866,287.147c-10.266,-0 -19.333,-2.2 -27.2,-6.6c-7.866,-4.4 -14,-10.533 -18.4,-18.4c-4.4,-7.867 -6.6,-17.067 -6.6,-27.6c0,-11.333 2.234,-21 6.7,-29c4.467,-8 10.267,-14.167 17.4,-18.5c7.134,-4.333 14.7,-6.5 22.7,-6.5c5.867,0 11.567,1.033 17.1,3.1c5.534,2.067 10.467,5.133 14.8,9.2c4.334,4.067 7.8,9.033 10.4,14.9c2.6,5.867 4.034,12.667 4.3,20.4c-0.133,1.6 -0.8,2.967 -2,4.1c-1.2,1.133 -2.6,1.7 -4.2,1.7l-80.2,0l-2.4,-10.8l78.8,0l-2.6,2.4l0,-4c-0.533,-6.267 -2.533,-11.6 -6,-16c-3.466,-4.4 -7.666,-7.733 -12.6,-10c-4.933,-2.267 -10.066,-3.4 -15.4,-3.4c-4,0 -8.1,0.8 -12.3,2.4c-4.2,1.6 -8,4.1 -11.4,7.5c-3.4,3.4 -6.166,7.733 -8.3,13c-2.133,5.267 -3.2,11.5 -3.2,18.7c0,7.867 1.6,15 4.8,21.4c3.2,6.4 7.834,11.467 13.9,15.2c6.067,3.733 13.3,5.6 21.7,5.6c4.667,0 8.867,-0.667 12.6,-2c3.734,-1.333 7,-3.1 9.8,-5.3c2.8,-2.2 5.134,-4.5 7,-6.9c1.467,-1.2 2.934,-1.8 4.4,-1.8c1.334,0 2.5,0.533 3.5,1.6c1,1.067 1.5,2.267 1.5,3.6c0,1.6 -0.666,3 -2,4.2c-4,4.8 -9.2,8.967 -15.6,12.5c-6.4,3.533 -13.4,5.3 -21,5.3Z"
        style="fill-rule:nonzero;"/><path
        d="M831.666,182.147c8.267,0 15.334,2.167 21.2,6.5c5.867,4.333 9.867,10.767 12,19.3l-2.8,0.8l1.2,-3.6c1.734,-4 4.634,-7.767 8.7,-11.3c4.067,-3.533 8.7,-6.367 13.9,-8.5c5.2,-2.133 10.467,-3.2 15.8,-3.2c8.4,0 15.167,1.8 20.3,5.4c5.134,3.6 8.867,8.433 11.2,14.5c2.334,6.067 3.5,12.9 3.5,20.5l0,56.6c0,1.6 -0.566,3 -1.7,4.2c-1.133,1.2 -2.566,1.8 -4.3,1.8c-1.733,0 -3.166,-0.6 -4.3,-1.8c-1.133,-1.2 -1.7,-2.6 -1.7,-4.2l0,-56c0,-5.467 -0.866,-10.467 -2.6,-15c-1.733,-4.533 -4.466,-8.133 -8.2,-10.8c-3.733,-2.667 -8.733,-4 -15,-4c-5.466,0 -10.7,1.333 -15.7,4c-5,2.667 -9.066,6.267 -12.2,10.8c-3.133,4.533 -4.7,9.533 -4.7,15l0,56c0,1.6 -0.566,3 -1.7,4.2c-1.133,1.2 -2.566,1.8 -4.3,1.8c-1.733,0 -3.166,-0.6 -4.3,-1.8c-1.133,-1.2 -1.7,-2.6 -1.7,-4.2l0,-56.6c0,-5.467 -0.8,-10.4 -2.4,-14.8c-1.6,-4.4 -4.2,-7.9 -7.8,-10.5c-3.6,-2.6 -8.466,-3.9 -14.6,-3.9c-5.466,0 -10.633,1.3 -15.5,3.9c-4.866,2.6 -8.8,6.1 -11.8,10.5c-3,4.4 -4.5,9.333 -4.5,14.8l0,56.6c0,1.6 -0.6,3 -1.8,4.2c-1.2,1.2 -2.6,1.8 -4.2,1.8c-1.866,0 -3.333,-0.6 -4.4,-1.8c-1.066,-1.2 -1.6,-2.6 -1.6,-4.2l0,-89.6c0,-1.6 0.567,-3 1.7,-4.2c1.134,-1.2 2.567,-1.8 4.3,-1.8c1.734,0 3.167,0.6 4.3,1.8c1.134,1.2 1.7,2.6 1.7,4.2l0,18.6l-5.4,7.4c0.4,-4 1.7,-8 3.9,-12c2.2,-4 5.1,-7.6 8.7,-10.8c3.6,-3.2 7.7,-5.767 12.3,-7.7c4.6,-1.933 9.434,-2.9 14.5,-2.9Z"
        style="fill-rule:nonzero;"/><path
        d="M1004.27,287.147c-10.266,-0 -19.333,-2.2 -27.2,-6.6c-7.866,-4.4 -14,-10.533 -18.4,-18.4c-4.4,-7.867 -6.6,-17.067 -6.6,-27.6c0,-11.333 2.234,-21 6.7,-29c4.467,-8 10.267,-14.167 17.4,-18.5c7.134,-4.333 14.7,-6.5 22.7,-6.5c5.867,0 11.567,1.033 17.1,3.1c5.534,2.067 10.467,5.133 14.8,9.2c4.334,4.067 7.8,9.033 10.4,14.9c2.6,5.867 4.034,12.667 4.3,20.4c-0.133,1.6 -0.8,2.967 -2,4.1c-1.2,1.133 -2.6,1.7 -4.2,1.7l-80.2,0l-2.4,-10.8l78.8,0l-2.6,2.4l0,-4c-0.533,-6.267 -2.533,-11.6 -6,-16c-3.466,-4.4 -7.666,-7.733 -12.6,-10c-4.933,-2.267 -10.066,-3.4 -15.4,-3.4c-4,0 -8.1,0.8 -12.3,2.4c-4.2,1.6 -8,4.1 -11.4,7.5c-3.4,3.4 -6.166,7.733 -8.3,13c-2.133,5.267 -3.2,11.5 -3.2,18.7c0,7.867 1.6,15 4.8,21.4c3.2,6.4 7.834,11.467 13.9,15.2c6.067,3.733 13.3,5.6 21.7,5.6c4.667,0 8.867,-0.667 12.6,-2c3.734,-1.333 7,-3.1 9.8,-5.3c2.8,-2.2 5.134,-4.5 7,-6.9c1.467,-1.2 2.934,-1.8 4.4,-1.8c1.334,0 2.5,0.533 3.5,1.6c1,1.067 1.5,2.267 1.5,3.6c0,1.6 -0.666,3 -2,4.2c-4,4.8 -9.2,8.967 -15.6,12.5c-6.4,3.533 -13.4,5.3 -21,5.3Z"
        style="fill-rule:nonzero;"/><path
        d="M1109.27,180.547c8.8,0 15.834,1.767 21.1,5.3c5.267,3.533 9.067,8.333 11.4,14.4c2.334,6.067 3.5,12.767 3.5,20.1l0,58.8c0,1.6 -0.6,3 -1.8,4.2c-1.2,1.2 -2.6,1.8 -4.2,1.8c-1.866,0 -3.333,-0.6 -4.4,-1.8c-1.066,-1.2 -1.6,-2.6 -1.6,-4.2l0,-58.2c0,-5.333 -0.866,-10.2 -2.6,-14.6c-1.733,-4.4 -4.566,-7.933 -8.5,-10.6c-3.933,-2.667 -9.1,-4 -15.5,-4c-5.733,0 -11.166,1.333 -16.3,4c-5.133,2.667 -9.3,6.2 -12.5,10.6c-3.2,4.4 -4.8,9.267 -4.8,14.6l0,58.2c0,1.6 -0.6,3 -1.8,4.2c-1.2,1.2 -2.6,1.8 -4.2,1.8c-1.866,0 -3.333,-0.6 -4.4,-1.8c-1.066,-1.2 -1.6,-2.6 -1.6,-4.2l0,-89.6c0,-1.6 0.567,-3 1.7,-4.2c1.134,-1.2 2.567,-1.8 4.3,-1.8c1.734,0 3.167,0.6 4.3,1.8c1.134,1.2 1.7,2.6 1.7,4.2l0,16.8l-4.6,7.2c0.267,-4.267 1.634,-8.367 4.1,-12.3c2.467,-3.933 5.634,-7.467 9.5,-10.6c3.867,-3.133 8.167,-5.6 12.9,-7.4c4.734,-1.8 9.5,-2.7 14.3,-2.7Z"
        style="fill-rule:nonzero;"/><path
        d="M1160.07,183.347l46.6,0c1.6,0 2.934,0.567 4,1.7c1.067,1.133 1.6,2.5 1.6,4.1c0,1.467 -0.533,2.733 -1.6,3.8c-1.066,1.067 -2.4,1.6 -4,1.6l-46.6,0c-1.6,0 -2.966,-0.567 -4.1,-1.7c-1.133,-1.133 -1.7,-2.433 -1.7,-3.9c0,-1.6 0.567,-2.933 1.7,-4c1.134,-1.067 2.5,-1.6 4.1,-1.6Zm20.6,-28.2c1.734,0 3.167,0.6 4.3,1.8c1.134,1.2 1.7,2.6 1.7,4.2l0,100.4c0,3.733 0.5,6.533 1.5,8.4c1,1.867 2.3,3.1 3.9,3.7c1.6,0.6 3.2,0.9 4.8,0.9c1.067,0 2.034,-0.167 2.9,-0.5c0.867,-0.333 1.834,-0.5 2.9,-0.5c1.2,0 2.234,0.467 3.1,1.4c0.867,0.933 1.3,2.133 1.3,3.6c0,1.867 -1.066,3.433 -3.2,4.7c-2.133,1.267 -4.666,1.9 -7.6,1.9c-1.2,0 -3,-0.1 -5.4,-0.3c-2.4,-0.2 -4.866,-0.933 -7.4,-2.2c-2.533,-1.267 -4.633,-3.5 -6.3,-6.7c-1.666,-3.2 -2.5,-7.8 -2.5,-13.8l0,-101c0,-1.6 0.567,-3 1.7,-4.2c1.134,-1.2 2.567,-1.8 4.3,-1.8Z"
        style="fill-rule:nonzero;"/><path
        d="M1218.67,268.947c-1.066,-1.6 -1.566,-3.167 -1.5,-4.7c0.067,-1.533 0.9,-2.767 2.5,-3.7c1.067,-0.933 2.3,-1.333 3.7,-1.2c1.4,0.133 2.7,0.8 3.9,2c3.6,4.667 7.967,8.433 13.1,11.3c5.134,2.867 11.234,4.3 18.3,4.3c3.734,0 7.434,-0.633 11.1,-1.9c3.667,-1.267 6.7,-3.2 9.1,-5.8c2.4,-2.6 3.6,-5.9 3.6,-9.9c0,-4.133 -1.2,-7.467 -3.6,-10c-2.4,-2.533 -5.5,-4.533 -9.3,-6c-3.8,-1.467 -7.833,-2.733 -12.1,-3.8c-4.533,-1.2 -8.933,-2.567 -13.2,-4.1c-4.266,-1.533 -8.033,-3.467 -11.3,-5.8c-3.266,-2.333 -5.9,-5.167 -7.9,-8.5c-2,-3.333 -3,-7.4 -3,-12.2c0,-5.6 1.534,-10.533 4.6,-14.8c3.067,-4.267 7.234,-7.6 12.5,-10c5.267,-2.4 11.234,-3.6 17.9,-3.6c3.334,0 6.934,0.433 10.8,1.3c3.867,0.867 7.667,2.3 11.4,4.3c3.734,2 7.067,4.733 10,8.2c1.2,1.2 1.8,2.567 1.8,4.1c0,1.533 -0.666,2.9 -2,4.1c-1.066,0.8 -2.3,1.2 -3.7,1.2c-1.4,0 -2.566,-0.533 -3.5,-1.6c-3.2,-3.6 -7,-6.333 -11.4,-8.2c-4.4,-1.867 -9.133,-2.8 -14.2,-2.8c-3.866,0 -7.5,0.633 -10.9,1.9c-3.4,1.267 -6.233,3.167 -8.5,5.7c-2.266,2.533 -3.4,5.867 -3.4,10c0.267,3.867 1.634,7 4.1,9.4c2.467,2.4 5.734,4.4 9.8,6c4.067,1.6 8.634,3.067 13.7,4.4c4.267,1.067 8.367,2.333 12.3,3.8c3.934,1.467 7.4,3.3 10.4,5.5c3,2.2 5.4,4.967 7.2,8.3c1.8,3.333 2.7,7.533 2.7,12.6c0,5.867 -1.633,10.933 -4.9,15.2c-3.266,4.267 -7.633,7.533 -13.1,9.8c-5.466,2.267 -11.533,3.4 -18.2,3.4c-7.2,-0 -14.166,-1.4 -20.9,-4.2c-6.733,-2.8 -12.7,-7.467 -17.9,-14Z"
        style="fill-rule:nonzero;"/></g>
    <path d="M1583.5,59.816c-79.962,-0 -64.577,273.992 -144.539,273.992c-87.957,-0 -36.427,-270.482 -212.771,-270.482l-1217.22,0"
          style="fill:none;stroke:url(#_Linear1);stroke-width:25.22px;"/>
    <path d="M1583.5,259.513c-23.159,-0 -81.953,0.896 -103.049,-21.742c-54.933,-58.948 2.032,-186.995 -177.798,-186.995l-1293.68,0"
          style="fill:none;stroke:url(#_Linear2);stroke-width:26.6px;"/>
    <defs><linearGradient id="_Linear1" x1="0" y1="0" x2="1" y2="0" gradientUnits="userSpaceOnUse" gradientTransform="matrix(-2776.95,18.3963,-9.53285,-1439,2422,-41.2789)"><stop offset="0" style="stop-color:#fff;stop-opacity:0.06"/><stop
            offset="0.16" style="stop-color:#888aff;stop-opacity:0.29"/><stop offset="0.35"
                                                                              style="stop-color:#2429ff;stop-opacity:0.49"/><stop
            offset="1" style="stop-color:#0006ff;stop-opacity:0.56"/></linearGradient>
        <linearGradient id="_Linear2" x1="0" y1="0" x2="1" y2="0" gradientUnits="userSpaceOnUse"
                        gradientTransform="matrix(1965.08,24.0183,-14.4998,1186.31,-475.035,253.425)"><stop offset="0" style="stop-color:#fff;stop-opacity:0.06"/>
            <stop offset="0.15" style="stop-color:#ff84a8;stop-opacity:0.33"/>
            <stop offset="0.33" style="stop-color:#ff2263;stop-opacity:0.55"/>
            <stop offset="1" style="stop-color:#ff004b;stop-opacity:0.62"/></linearGradient></defs></svg>
